<?xml version="1.0" encoding="UTF-8" standalone="no"?>
<svg
   width="168px"
   height="96px"
   viewBox="0 0 168 96"
   version="1.1"
   id="svg25"
   sodipodi:docname="dennys.svg"
   inkscape:version="1.1 (ce6663b3b7, 2021-05-25)"
   xmlns:inkscape="http://www.inkscape.org/namespaces/inkscape"
   xmlns:sodipodi="http://sodipodi.sourceforge.net/DTD/sodipodi-0.dtd"
   xmlns="http://www.w3.org/2000/svg"
   xmlns:svg="http://www.w3.org/2000/svg">
  <defs
     id="defs29" />
  <sodipodi:namedview
     id="namedview27"
     pagecolor="#505050"
     bordercolor="#eeeeee"
     borderopacity="1"
     inkscape:pageshadow="0"
     inkscape:pageopacity="0"
     inkscape:pagecheckerboard="0"
     showgrid="false"
     inkscape:zoom="2.7083333"
     inkscape:cx="87.692308"
     inkscape:cy="50.584615"
     inkscape:window-width="1312"
     inkscape:window-height="704"
     inkscape:window-x="54"
     inkscape:window-y="27"
     inkscape:window-maximized="1"
     inkscape:current-layer="Group" />
  <g
     id="Page-1"
     stroke="none"
     stroke-width="1"
     fill="none"
     fill-rule="evenodd">
    <g
       id="Property-1=Initial"
       transform="translate(-555.000000, 0.000000)">
      <g
         id="Group"
         transform="translate(555.000000, 0.000000)">
        <path
           d="M85.089,8 L10.183,26.6919 C10.12,26.7088 10.067,26.7496 10.034,26.8055 C9.99996875,26.8614 9.992,26.9278 10.007,26.9907 L20.193,71.3503 C20.204,71.3955 20.227,71.4369 20.259,71.4697 C20.292,71.5025 20.334,71.5254 20.379,71.5358 L85.264,86.9921 C85.305,87.0026 85.347,87.0026 85.388,86.9921 L149.706,71.0309 C149.751,71.0194 149.792,70.9962 149.824,70.9635 C149.857,70.9309 149.88,70.8901 149.892,70.8454 L159.995,26.8155 C160.008,26.7528 159.995,26.6877 159.961,26.6339 C159.926,26.5801 159.872,26.5418 159.81,26.527 L85.182,8 L85.089,8 Z M145.587,66.6104 L85.182,81.0363 L85.068,81.0363 L24.704,66.734 C24.659,66.7236 24.618,66.7007 24.585,66.6679 C24.552,66.6351 24.529,66.5938 24.519,66.5486 L16.774,30.2159 C16.764,30.1534 16.778,30.0895 16.812,30.0363 C16.846,29.9831 16.898,29.9443 16.959,29.9274 L85.182,13.5025 L85.295,13.5025 L153.383,29.8656 C153.444,29.8825 153.497,29.9212 153.531,29.9745 C153.565,30.0277 153.578,30.0916 153.569,30.1541 L145.824,66.4352 C145.81,66.4879 145.779,66.5346 145.737,66.5682 C145.694,66.6017 145.641,66.6202 145.587,66.6207 L145.587,66.6104 Z"
           id="Shape"
           fill="#CE3439"
           fill-rule="nonzero" />
        <path
           d="M49.792,46.4865 C49.792,46.4865 49.432,38.2431 45.261,33.8123 C40.698,28.4953 28.638,32.483 25.816,32.7303 C25.796,32.7329 25.776,32.7409 25.76,32.7535 C25.744,32.766 25.732,32.7827 25.725,32.8017 C25.717,32.8206 25.715,32.8413 25.719,32.8613 C25.722,32.8814 25.731,32.9002 25.744,32.9158 L28.04,35.5949 L31.831,57.6665 L31.831,58.429 L30.595,61.3554 C30.587,61.3741 30.585,61.3945 30.587,61.4145 C30.59,61.4344 30.598,61.4533 30.611,61.469 C30.624,61.4848 30.64,61.4969 30.659,61.5041 C30.678,61.5115441 30.698,61.5133 30.718,61.51 C32.232,61.3245 42.377,60.0365 45.436,57.8932 C48.289,55.7809 50.266,52.4938 49.792,46.4865 Z M42.367,49.7117 C42.38,50.2287 42.284,50.7427 42.086,51.2205 C41.888,51.6982 41.593,52.1292 41.218,52.4856 C40.843,52.8419 40.398,53.1157 39.911,53.2893 C39.424,53.4629 38.907,53.5324 38.391,53.4933 C38.367,53.4899 38.344,53.4793 38.325,53.4628 C38.307,53.4462 38.294,53.4246 38.288,53.4006 L35.507,37.4188 C35.504,37.4052 35.504,37.3912 35.507,37.3775 C35.509,37.3639 35.515,37.3509 35.522,37.3394 C35.53,37.3278 35.54,37.3179 35.551,37.3103 C35.563,37.3027 35.576,37.2975 35.59,37.2951 C36.087,37.1105 36.617,37.0295 37.147,37.0572 C37.677,37.0849 38.195,37.2206 38.671,37.456 C39.146,37.6915 39.569,38.0217 39.912,38.4264 C40.255,38.8311 40.512,39.3017 40.667,39.8093 C40.667,39.8093 42.696,45.5488 42.367,49.7117 Z"
           id="path4"
           fill="#CE3439"
           fill-rule="nonzero" />
        <path
           d="M67.486,47.5063 L62.656,47.939 C62.608,47.9417 62.564,47.9624 62.531,47.9969 C62.499,48.0314 62.481,48.0771 62.481,48.1245 C62.481,48.7016 62.295,50.5563 61.234,51.2158 C60.998,51.3606 60.72,51.4211 60.445,51.3874 C60.17,51.3537 59.915,51.2278 59.72,51.0303 C59.164,50.4636 58.464,49.0931 58.289,45.8782 C58.289,45.8526 58.298,45.8278 58.315,45.8088 C58.332,45.7897 58.356,45.7777 58.382,45.7752 L67.445,45.0332 C67.459,45.0333 67.474,45.0304 67.487,45.0245 C67.5,45.0187 67.512,45.0102 67.522,44.9995 C67.531,44.9888 67.539,44.9762 67.543,44.9625 C67.548,44.9488 67.549,44.9343 67.548,44.9199 C67.548,43.7864 67.548,34.0902 61.904,32.39 C55.93,30.5764 53.665,35.1721 53.665,35.1721 C53.665,35.1721 50.719,40.7982 53.139,50.4327 C53.557,52.2234 54.422,53.8789 55.652,55.2447 C56.699,56.4246 58.14,57.1808 59.706,57.3706 C61.271,57.5604 62.851,57.1708 64.149,56.2752 C65.233,55.4977 66.069,54.4245 66.559,53.1839 C67.357,51.4354 67.711,49.5171 67.589,47.599 C67.596,47.5849 67.598,47.569 67.595,47.5536 C67.592,47.5383 67.584,47.5243 67.573,47.5138 C67.561,47.5034 67.546,47.497 67.531,47.4956 C67.515,47.4942 67.499,47.498 67.486,47.5063 Z M59.875,37.3154 C61.698,37.3978 61.852,40.8703 61.863,41.4371 C61.863,41.46 61.855,41.4821 61.839,41.4993 C61.824,41.5164 61.803,41.5273 61.78,41.5298 L57.97,41.8389 C57.957,41.8389 57.945,41.8365 57.934,41.8319 C57.923,41.8272 57.913,41.8204 57.904,41.8118 C57.895,41.8032 57.889,41.7929 57.884,41.7817 C57.879,41.7704 57.877,41.7584 57.877,41.7462 C57.836,41.128 57.702,37.2227 59.875,37.3154 Z"
           id="path6"
           fill="#CE3439"
           fill-rule="nonzero" />
        <path
           d="M68.506,32.4933 L69.989,34.7911 C70,34.8176 70,34.8471 69.989,34.8736 L70.607,53.7509 C70.613,53.7781 70.613,53.8062 70.607,53.8333 L69.433,56.1003 C69.421,56.1265 69.416,56.1554 69.418,56.1842 C69.42,56.213 69.429,56.2408 69.444,56.2653 C69.46,56.2898 69.481,56.3101 69.506,56.3244 C69.531,56.3388 69.559,56.3467 69.588,56.3476 L76.797,56.1106 C76.818,56.1106 76.839,56.1063 76.859,56.0979 C76.878,56.0895 76.896,56.0772 76.91,56.0617 C76.925,56.0462 76.936,56.028 76.943,56.008 C76.95,55.9881 76.953,55.9668 76.952,55.9457 L76.406,40.6027 C76.406,40.6027 76.334,39.0777 77.683,38.8613 C79.032,38.8613 78.96,40.4688 78.96,40.4688 L79.557,55.7705 C79.559,55.7922 79.564,55.8134 79.574,55.8329 C79.583,55.8524 79.597,55.8698 79.613,55.8842 C79.629,55.8985 79.648,55.9095 79.669,55.9166 C79.689,55.9236 79.711,55.9265 79.733,55.9251 L86.499,55.7911 C86.527,55.7905 86.554,55.7829 86.578,55.7691 C86.602,55.7552 86.622,55.7356 86.636,55.712 C86.65,55.6884 86.659,55.6616 86.6601075,55.634 C86.661,55.6064 86.655,55.579 86.643,55.5541 L85.778,53.7097 C85.774,53.6893 85.774,53.6682 85.778,53.6479 L85.181,36.7077 C85.181,36.7077 85.057,31.4938 80.948,31.2671 C79.967,31.3096 79.02,31.6386 78.224,32.2136 C77.427,32.7886 76.817,33.5844 76.468,34.5026 C76.451,34.5337 76.425,34.5585 76.393,34.5735 C76.361,34.5885 76.325,34.5929 76.29,34.586 C76.256,34.5791 76.224,34.5612 76.201,34.5351 C76.177,34.5089 76.162,34.4759 76.159,34.4408 L76.159,32.0914 C76.156,32.0468 76.136,32.0048 76.104,31.9742 C76.071,31.9435 76.028,31.9265 75.984,31.9266 L68.723,32.2357 C68.706,32.2215 68.686,32.2107 68.665,32.2041 C68.644,32.1974 68.622,32.195 68.6,32.1969 C68.578,32.1988 68.557,32.205 68.537,32.2152 C68.517,32.2254 68.5,32.2394 68.486,32.2563 C68.472,32.2732 68.461,32.2928 68.454,32.3138 C68.448,32.3349 68.445,32.3571 68.447,32.3791 C68.449,32.4011 68.455,32.4225 68.465,32.4421 C68.476,32.4617 68.489,32.4791 68.506,32.4933 Z"
           id="path8"
           fill="#CE3439"
           fill-rule="nonzero" />
        <path
           d="M88.27,31.9987 L89.619,34.3584 C89.624,34.3891 89.624,34.4204 89.619,34.4511 L89.063,53.3388 C89.072,53.362 89.072,53.3876 89.063,53.4109 L87.735,55.6057 C87.721,55.6301 87.713,55.6578 87.712,55.686 C87.712,55.7142 87.719,55.7421 87.732,55.7669 C87.746,55.7917 87.765,55.8127 87.789,55.8277 C87.813,55.8428 87.84,55.8515 87.869,55.853 L95.078,56.0591 C95.121,56.0594 95.163,56.0438 95.195,56.0153 C95.227,55.9868 95.248,55.9473 95.253,55.9045 L95.624,40.5512 C95.624,40.5512 95.624,39.0262 97.004,38.8923 C98.343,38.9644 98.178,40.5821 98.178,40.5821 L97.869,56.0385 C97.866,56.06 97.868,56.0819 97.874,56.1026 C97.881,56.1234 97.892,56.1424 97.907,56.1582 C97.921,56.1741 97.94,56.1864 97.96,56.1942 C97.98,56.202 98.002,56.2051 98.024,56.2033 L105.13,56.4713 C105.157,56.4735 105.184,56.4688 105.208,56.4576 C105.232,56.4463 105.253,56.4289 105.269,56.4071 C105.285,56.3853 105.294,56.3597 105.297,56.333 C105.3,56.3064 105.295,56.2794 105.285,56.2549 L104.193,54.194 C104.188,54.1737 104.188,54.1526 104.193,54.1322 L104.553,37.2024 C104.553,37.2024 104.759,31.9884 100.671,31.5144 C99.688,31.4973 98.722,31.7695 97.892,32.297 C97.063,32.8246 96.406,33.5844 96.005,34.482 C95.987,34.5142 95.959,34.5396 95.925,34.554 C95.891,34.5684 95.854,34.571 95.818,34.5616 C95.783,34.5521 95.751,34.531 95.729,34.5017 C95.707,34.4723 95.695,34.4364 95.696,34.3996 L95.778,32.0503 C95.781,32.0283 95.78,32.006 95.773,31.9848 C95.767,31.9636 95.756,31.944 95.741,31.9274 C95.726,31.9108 95.708,31.8975 95.688,31.8885 C95.668,31.8795 95.646,31.8749 95.624,31.8751 L88.353,31.7514 C88.329,31.7598 88.307,31.7734 88.29,31.7913 C88.272,31.8093 88.259,31.831 88.251,31.8549 C88.243,31.8787 88.24,31.9041 88.244,31.9291 C88.247,31.954 88.256,31.9778 88.27,31.9987 Z"
           id="path10"
           fill="#CE3439"
           fill-rule="nonzero" />
        <path
           d="M104.961,32.7303 L114.055,33.4928 C114.085,33.4962 114.113,33.5068 114.138,33.5235 C114.162,33.5403 114.183,33.5628 114.197,33.5891 C114.211,33.6154 114.219,33.6448 114.219,33.6746 C114.219,33.7045 114.213,33.734 114.199,33.7607 L112.912,35.9452 C112.844,36.0638 112.815,36.2008 112.829,36.3368 L114.178,48.9285 C114.178,48.975 114.197,49.0195 114.23,49.0524 C114.263,49.0852 114.307,49.1037 114.354,49.1037 C114.4,49.1037 114.445,49.0852 114.477,49.0524 C114.51,49.0195 114.529,48.975 114.529,48.9285 L117.618,36.5635 C117.66,36.4327 117.66,36.2924 117.618,36.1616 L116.764,34.008 C116.753,33.9806 116.75,33.951 116.754,33.9219 C116.758,33.8929 116.769,33.8653 116.786,33.8417 C116.804,33.8181 116.827,33.7993 116.854,33.7869 C116.88,33.7746 116.909,33.7691 116.939,33.771 L125.94,34.4408 C125.973,34.4426 126.004,34.4535 126.031,34.4722 C126.058,34.4909 126.079,34.5167 126.091,34.5467 C126.104,34.5767 126.109,34.6097 126.104,34.6419 C126.099,34.6742 126.085,34.7045 126.064,34.7293 L124.643,36.2543 C124.466,36.4399 124.32,36.652 124.21,36.8829 C124.138,37.0375 124.076,37.192 124.014,37.3466 L114.745,63.1071 C114.731,63.1441 114.706,63.1755 114.672,63.196 C114.638,63.2166 114.599,63.2252 114.56,63.2205 L107.154,62.5198 C107.123,62.5149 107.094,62.5022 107.07,62.4829 C107.045,62.4637 107.025,62.4385 107.013,62.4097 C107.001,62.3808 106.996,62.3494 106.999,62.3182 C107.002,62.287 107.013,62.2571 107.031,62.2313 L108.452,60.4177 C108.778,60.0171 109.02,59.5544 109.163,59.0576 L110.193,55.7808 L106.31,35.6876 C106.297,35.6156 106.272,35.546 106.238,35.4815 L104.755,32.9467 C104.743,32.9175 104.74,32.8856 104.746,32.8548 C104.752,32.824 104.767,32.7956 104.789,32.7728 C104.81,32.7501 104.838,32.734 104.869,32.7265 C104.899,32.719 104.931,32.7203 104.961,32.7303 Z"
           id="path12"
           fill="#CE3439"
           fill-rule="nonzero" />
        <path
           d="M132.465,32.833 C132.249,34.6438 131.381,36.3138 130.024,37.5317 L127.316,39.4895 C127.274,39.5286 127.218,39.5504 127.161,39.5504 C127.104,39.5504 127.049,39.5286 127.007,39.4895 C127.254,38.9125 127.491,38.3251 127.728,37.7378 L128.541,35.78 L128.788,35.1824 C128.256,35.0838 127.757,34.8536 127.336,34.5126 C126.731,34.0564 126.294,33.4119 126.094,32.6802 C125.894,31.9485 125.943,31.1712 126.233,30.4704 C126.524,29.7697 127.038,29.1853 127.696,28.809 C128.355,28.4328 129.119,28.286 129.87,28.3919 C130.707,28.5478 131.448,29.0296 131.93,29.7314 C132.435,30.6813 132.623,31.7684 132.465,32.833 Z"
           id="path14"
           fill="#CE3439"
           fill-rule="nonzero" />
        <path
           d="M132.443,31.9572 L132.443,31.2153 C132.474,31.4617 132.474,31.7109 132.443,31.9572 Z"
           id="path16"
           fill="#CE3439"
           fill-rule="nonzero" />
        <path
           d="M142.632,43.673 L143.662,38.5209 C143.673,38.459 143.665,38.3953 143.642,38.3371 C143.618,38.2789 143.579,38.2284 143.528,38.1912 C142.746,37.6451 139.409,35.4812 136.566,35.7903 C135.282,35.8567 134.03,36.22 132.91,36.8517 C131.667,37.7427 130.735,39.0017 130.245,40.4512 C129.755,41.9006 129.733,43.4673 130.181,44.9302 C130.412,45.6126 130.734,46.2607 131.138,46.8571 C131.674,47.6608 132.23,48.4336 132.755,49.2373 C133.178,49.8762 133.59,50.5047 133.991,51.1539 C134.299,51.5348 134.536,51.9675 134.692,52.4316 C134.707,52.5548 134.707,52.6794 134.692,52.8026 C134.666,53.2167 134.488,53.6066 134.191,53.8962 C133.894,54.1857 133.499,54.3542 133.085,54.3688 C131.777,54.307 129.861,52.8644 128.152,50.8757 C128.133,50.854 128.109,50.8378 128.082,50.8288 C128.055,50.8198 128.026,50.8184 127.999,50.8248 C127.971,50.8312 127.946,50.8451 127.925,50.865 C127.905,50.8849 127.891,50.91 127.884,50.9375 L126.679,57.0376 C126.664,57.108 126.668,57.1809 126.69,57.2494 C126.711,57.3179 126.75,57.3798 126.802,57.4292 C127.668,58.2329 131.705,61.7054 136.072,60.1186 C140.964,58.3257 141.324,54.6367 141.324,54.6367 C141.618,53.286 141.59,51.8852 141.245,50.5468 C140.9,49.2084 140.246,47.9694 139.337,46.9292 C136.247,43.3124 136.453,42.7354 136.453,42.7354 C136.421,42.4993 136.444,42.2591 136.52,42.0332 C136.595,41.8073 136.721,41.6016 136.888,41.4317 C137.055,41.2618 137.258,41.1322 137.483,41.0528 C137.707,40.9734 137.947,40.9462 138.183,40.9733 C139.79,40.9733 141.726,43.0342 142.303,43.7658 C142.315,43.8095 142.344,43.8466 142.384,43.8688 C142.423,43.891 142.47,43.8966 142.514,43.8843 C142.558,43.872 142.595,43.8428 142.617,43.8032 C142.639,43.7636 142.645,43.7168 142.632,43.673 Z"
           id="path18"
           fill="#CE3439"
           fill-rule="nonzero" />
        <path
           d="M122.786,63.4781 C123.193,63.4781 123.591,63.3573 123.93,63.1308 C124.269,62.9044 124.533,62.5825 124.689,62.2059 C124.845,61.8294 124.885,61.415 124.806,61.0152 C124.726,60.6155 124.53,60.2483 124.242,59.9601 C123.954,59.6718 123.587,59.4756 123.188,59.396 C122.788,59.3165 122.374,59.3573 121.997,59.5133 C121.621,59.6693 121.299,59.9334 121.073,60.2723 C120.847,60.6113 120.726,61.0097 120.726,61.4173 C120.726,61.9639 120.943,62.488 121.329,62.8745 C121.715,63.261 122.239,63.4781 122.786,63.4781 Z M122.786,59.851 C123.088,59.8551 123.383,59.9486 123.633,60.1198 C123.882,60.2909 124.076,60.5321 124.189,60.813 C124.302,61.0939 124.329,61.4019 124.268,61.6983 C124.206,61.9948 124.058,62.2664 123.843,62.4791 C123.628,62.6918 123.354,62.8359 123.057,62.8935 C122.76,62.9511 122.452,62.9195 122.173,62.8028 C121.894,62.686 121.655,62.4892 121.488,62.2372 C121.32,61.9852 121.231,61.6892 121.229981,61.3864 C121.229,61.1844 121.268,60.9841 121.345,60.7972 C121.421,60.6103 121.534,60.4405 121.677,60.2977 C121.82,60.1548 121.989,60.0418 122.176,59.9651 C122.363,59.8885 122.563,59.8497 122.765,59.851 L122.786,59.851 Z M122.415,61.5822 L122.734,61.5822 L123.239,62.5198 L123.816,62.5198 L123.29,61.5822 C123.692,61.5822 123.908,61.3658 123.908,60.9536 C123.92,60.8377 123.902,60.7207 123.855,60.6141 C123.808,60.5074 123.734,60.4149 123.641,60.3457 C123.451,60.2561 123.242,60.2171 123.033,60.2323 L121.941,60.2323 L121.941,62.5198 L122.446,62.5198 L122.446,61.5822 L122.415,61.5822 Z M122.415,61.17 L122.415,60.6548 L122.899,60.6548 C123.115,60.6548 123.352,60.6548 123.352,60.8815 C123.352,61.1082 123.259,61.1803 123.012,61.17 L122.415,61.17 Z"
           id="path20"
           fill="#CE3439" />
      </g>
    </g>
  </g>
</svg>
