<?xml version="1.0" encoding="utf-8"?>
<!-- Generator: Adobe Illustrator 18.0.0, SVG Export Plug-In . SVG Version: 6.00 Build 0)  -->
<!DOCTYPE svg PUBLIC "-//W3C//DTD SVG 1.1//EN" "http://www.w3.org/Graphics/SVG/1.1/DTD/svg11.dtd">
<svg version="1.1" id="Layer_1" xmlns="http://www.w3.org/2000/svg" xmlns:xlink="http://www.w3.org/1999/xlink" x="0px" y="0px"
	 viewBox="0 0 389.9 275.7" width="376.060946295" height="265.914344431" enable-background="new 0 0 389.9 275.7" xml:space="preserve">
<path fill-rule="evenodd" clip-rule="evenodd" fill="#FF5000" stroke="#672D00" stroke-miterlimit="10" d="M23.4,53.8
	c0,0-0.2-17.7-0.3-19c0-1.4,0.3-5.8-6.8-5.9l-8.8-0.1c0,0-5.9-0.1-6.4,5.8C0.6,40.4,0.4,90.1,0.5,92c0.3,5.1,6,4.4,10.7,4.5
	c4.7,0.1,9.5,0.9,10.3-5.1c1.2-9,1.2-18.5,1.2-18.5L33.4,72c0,0,0.3,15.3,0.2,17.7c0,2.2-0.2,5.9,4.4,6.8c5.9,1.2,10.5,0.3,12.7-0.3
	c2.2-0.7,4.4-1.5,4.5-5.3c0-3.9-0.3-55.2-0.3-55.2s0.5-3.9-3.4-4.9c-3.9-1-8.5-1.4-14.2-0.7c-2.4,0.3-4.9,3.4-4.9,5.8
	c0,2.4,0.3,17.6,0.3,17.6L23.4,53.8z"/>
<path fill-rule="evenodd" clip-rule="evenodd" fill="#FF5000" stroke="#672D00" stroke-miterlimit="10" d="M371.7,43.6
	C367,30.4,351.2,31.9,349.8,32c-1.4,0.1-20.5-0.5-23.2,18.9c-1.6,11.7,13.4,21.6,13.4,21.6s6.7,4.6,8.2,5.5c3.9,2.2,3.3,7.2-0.3,4.3
	c-2.1-1.7-6.6-4.4-8-5.3c-3.5-2.3-12.8-1-13.3,7.7c0,0-0.7,15.4,21.3,15.4c8.3,0,22.5-1.9,22.9-17.1c0.4-15.1-12.5-21.1-12.5-21.1
	s-5.7-2.7-8.7-4.6c-3.1-1.9-1.8-7.3,3-4.6C363.6,60.6,375.9,56.5,371.7,43.6"/>
<path fill="#DAD6CC" d="M148.7,216c-23.8,26.4-46.1,19.6-46.1,19.6l18.2-13.8c93.8-31.1,42.9-131.5,42.9-131.5l0.1-3.5l0.1,0.3
	l1.6-1.2c-1.2-2.5-2.3-4.8-3.5-6.8c0-3.3-10-9.9-10-9.9s-54.3-19.2-56.7-6.2c-7.9,9.3-13.9,49.8-13.9,49.8l8.3,79.8
	c0,0-0.7,37.1,3,41.6c27.8,9,46.2-5.3,56.8-19C149.3,215.5,149,215.8,148.7,216"/>
<path fill="#CDC3B9" d="M166.9,89l-2.1,1.5l-1.5,0.2c0,0,1.3,3.1,1.3,3.2l0,0l0.4,1.4c4.9,16.7,5.8,38.2,2.6,55.3l-2-1.1
	c-0.6,10.8-3.7,17.7-6.6,21.9c-1.1,1.4-2.3,2.8-3.4,4c-1.2,1.1-2,1.6-2,1.6c0.1-0.9-0.6-5.1-0.6-5.1c-9.6,20-48.8,33.7-48.8,33.7
	l1.3,6.5c-2.6,1.1-5.3,2.1-8.1,3.1l3,25.2c5.8,0.6,12.2-1.1,17.9-2.3c2.5-0.8,4.3-0.7,6.5-2c2.6-1.5,5.4-2.8,7.8-4.6
	c3.9-2.9,7-6.7,10.6-9.9c1.3-1.2,5.6-5.5,6.8-2.1c0.4,1.1,0.5,2.1,0.5,3.2c0.2,0.4,0.4,0.9,0.6,1.3c1.7-1.9,3.2-4,4.7-6.1
	C205.1,164.5,166.9,89,166.9,89"/>
<path fill="#672D00" d="M180.8,23.3c1.9-4.5-0.4-4.4-0.4-4.4s3.1-10.1-1.5-16.6c-3.5-4.9-5.3,0.9-5.3,0.9s-6.5,17.2-27.9,22.4
	c0,0-18.4,4.3-25.7,19.3c-7.4-14.1-24.6-18.6-24.6-18.6C74.1,20.5,68,3.2,68,3.2s-1.6-5.8-5.3-1c-4.7,6.4-1.9,16.6-1.9,16.6
	s-2.3-0.1-0.5,4.4c-3,8.6,1.9,22.3,1.9,22.3c-8.7,24.5,0.5,37.9,7.9,44.3c-12.7,14.4-32,37.6-31,80.4c0.7,28.3,14.5,55.8,18,62.3
	c0.3,0.5,0.3,0.4,0.6,1c0.3,0.5,0.8,1.1,1.2,1.5c0,0,0.3,0.3,0.3,0.3c0.4-1.4,1.4-4.4,1.4-4.4s0.5,8.9,6.5,14.4c0,0,0.2-0.4,0.2-0.4
	c0.1-0.8,0.6-4.5,0.8-6.5c1.1,11.4,5.2,17.2,6.3,18.6c0.2,0.2,1.6,2.2,1.7,1.9c0.3-1.9,1-4,1-4s7.3,20.5,7.9,20.5
	c0.5,0,8.1-14.8,8.9-15.9c0.7,0.7,1.9-0.1,2.5-0.5c3.2-2,5.1-5.7,6.6-9.1c0.6-1.4,1.2-2.7,1.8-4.1c0.8-1.9,1.5-3.7,2.2-5.6
	c0.6,2.6,0.6,2.3,0.7,3.9c0,0.2,0.1,0.5,0.1,0.7c0,0.4,0.1,0.5,0.5,0.3c2.7-1.6,7.4-8.5,8.2-9.6c0,0,40.6-58.7,4.6-119.5
	C108.3,94.8,93.3,83,97.2,72.8l8.7,3l27.7-3.1l5,10.1c4-0.9,17-3.7,22.2-4c2-0.1,4.5,5.5,6.9,13.1c8.8-7.6,16.1-20.1,11.3-39.2
	C179,52.6,183.6,32,180.8,23.3 M120.6,46.5L120.6,46.5l0-0.1L120.6,46.5L120.6,46.5z"/>
<path fill="#672D00" d="M85,275.7L85,275.7c-0.2,0-0.7,0-7.8-20c-0.2,0.8-0.6,2.1-0.8,3.3l0,0.2l-0.2,0c-0.1,0-0.3,0-1.8-2
	c-3-4.2-5.2-10-6.1-16.6c-0.2,1.8-0.5,3.9-0.6,4.4c0,0-0.1,0.6-0.4,0.6l-0.2-0.1c-4.7-4.3-6-10.8-6.4-13.5c-0.3,1-0.8,2.5-1,3.3
	l-0.1,0.2h-0.2c-0.2,0-0.5-0.4-0.5-0.4c-0.3-0.3-0.8-1-1.2-1.6c-0.1-0.2-0.2-0.3-0.2-0.4c-0.1-0.2-0.2-0.3-0.4-0.6
	c-1.8-3.2-17.3-32.5-18-62.4c-1-43.9,19.6-67.6,30.9-80.4c-4.8-4.2-8.1-9.3-9.9-15.3c-2.5-8.4-1.8-18.1,2.1-29
	c-0.4-1.2-4.8-14-1.9-22.3c-0.7-2-0.9-3.3-0.3-4.1c0.2-0.3,0.5-0.5,0.8-0.5c-0.4-1.7-2.3-10.7,2-16.5c1-1.3,2-2,2.9-2
	c1.9,0,2.8,3,2.8,3.1c0.1,0.2,6.3,17.2,27.2,22.9c0.2,0,17,4.6,24.5,18.3c7.4-14.6,25.5-19,25.6-19c21-5.1,27.7-22.1,27.7-22.3
	c0-0.1,1-3,2.9-3c0.9,0,1.9,0.7,2.9,2c4.2,6,2.1,14.9,1.6,16.6c0.2,0.1,0.5,0.2,0.8,0.5c0.5,0.8,0.4,2.2-0.4,4.1
	c2.7,8.5-1.5,27.9-1.8,29.3c5,20.1-3.4,32.5-11.4,39.4l-0.3,0.2l-0.1-0.4C164,81.3,161.9,79,160.8,79c-5.3,0.3-18.3,3.1-22.2,4
	l-0.2,0l-5-10.1l-27.6,3.1l-8.5-3c-2.3,6.5,3.1,13.7,10.6,23.7c4.1,5.5,8.8,11.7,13.2,19.2c18.6,31.4,16.4,62.3,11.2,82.7
	c-5.6,22.1-15.7,36.9-15.8,37l-0.2,0.3c-1.4,1.9-5.5,7.9-8.1,9.3c-0.8,0.4-0.8-0.2-0.8-0.5l0-0.3c0-0.1,0-0.3,0-0.4
	c-0.1-1.3-0.1-1.3-0.4-2.8l-0.1-0.3c-0.6,1.6-1.2,3.2-1.9,4.8l-0.1,0.2c-0.5,1.3-1.1,2.6-1.7,4c-1.6,3.6-3.4,7.2-6.7,9.2l-0.1,0
	c-0.5,0.3-1.2,0.8-1.9,0.8c-0.2,0-0.4-0.1-0.6-0.2c-0.5,0.8-1.7,3.1-3,5.5C85.9,274.9,85.3,275.7,85,275.7 M77.1,254.2l0.2,0.7
	c2.7,7.5,6.8,18.7,7.7,20.2c0.8-1,3.6-6.3,5.5-9.9c1.6-3,2.8-5.3,3.2-5.8l0.2-0.2l0.2,0.2c0.1,0.1,0.3,0.2,0.5,0.2
	c0.5,0,1.2-0.4,1.7-0.7l0.1,0c3.1-1.9,4.9-5.5,6.5-9c0.6-1.3,1.1-2.6,1.7-3.9l0.1-0.1c0.8-2,1.5-3.8,2.2-5.6l0.3-0.8l0.4,1.9
	c0.3,1.5,0.3,1.5,0.5,2.9c0,0.1,0,0.2,0,0.4l0,0.3c0,0,0,0.1,0,0.1c0,0,0.1,0,0.1-0.1c1.6-0.9,4.3-4,7.9-9.2l0.2-0.3
	c0.1-0.1,10.2-14.9,15.8-36.9c5.1-20.3,7.4-51-11.2-82.3c-4.4-7.4-9.1-13.6-13.2-19.1C99.9,86.8,94.4,79.5,97,72.7l0.1-0.2l8.9,3.1
	l27.8-3.1l4.9,10c4.1-0.9,16.9-3.7,22-3.9l0.1,0c1.9,0,4.2,4.2,7,12.9c7.8-6.8,15.9-19,10.9-38.7l0-0.1l0-0.1
	c0-0.2,4.6-20.7,1.8-29.2l0-0.1l0-0.1c0.9-2.3,0.8-3.3,0.5-3.7c-0.2-0.4-0.6-0.4-0.7-0.4l-0.3,0l0.1-0.3c0-0.1,3-10.1-1.5-16.4
	c-0.9-1.2-1.7-1.8-2.5-1.8c-1.6,0-2.4,2.7-2.4,2.7c-0.1,0.2-6.8,17.4-28.1,22.6c-0.2,0-18.3,4.5-25.5,19.2l-0.2,0.4l-0.2-0.4
	c-7.3-13.8-24.3-18.4-24.4-18.5c-21.1-5.7-27.5-23-27.6-23.2c0,0-0.8-2.7-2.4-2.8c-0.8,0-1.6,0.6-2.5,1.8
	c-4.6,6.2-1.9,16.3-1.8,16.4l0.1,0.3l-0.3,0c-0.1,0-0.4,0-0.7,0.4c-0.3,0.4-0.5,1.4,0.4,3.7l0,0.1l0,0.1c-3,8.4,1.9,22,1.9,22.1
	l0,0.1l0,0.1c-8.4,23.7-0.3,37,7.9,44.1l0.2,0.2L70.4,90c-11.2,12.7-31.9,36.3-30.9,80.2c0.7,29.8,16.2,59,18,62.2
	c0.2,0.3,0.2,0.4,0.3,0.6c0.1,0.1,0.1,0.2,0.2,0.4c0.4,0.6,0.9,1.3,1.1,1.5c0,0,0,0,0,0c0.5-1.5,1.3-4.1,1.3-4.1l0.5,0.1
	c0,0.1,0.6,8.7,6.1,14.1c0,0,0,0,0,0c0.1-0.8,0.6-4.5,0.8-6.4l0.5,0c0.7,7.4,2.9,14,6.2,18.5c0.5,0.7,1,1.3,1.3,1.6
	c0.3-1.8,0.9-3.7,0.9-3.7L77.1,254.2z M121.3,47.1l-1.1-0.6l0.5-0.6L121.3,47.1z"/>
<path fill="#672D00" d="M166.3,86.8c-7.6-9.5-12-15.8-16.2-18.2c-0.1,0-0.2,0-0.2,0c-0.1,0.1-0.1,0.2,0,0.3
	c12.8,13.1,20.4,30.6,22.5,52c1.5,14.7,0.2,31.3-3.4,47.5c-21.6,77.7-63.6,69.3-76.6,64.8c-2-3.1-1.6,0.1-0.3,1.6l0.2,0.3l-0.5,3
	c27.2,5.5,42.7-3.7,55.1-17.6c0.5,6,0.4,9,0.3,9.8c0,0,0,0,0,0.1c0,0.2,0.2,0.1,0.3,0.1c0,0,0,0,0,0c6.6-3.4,10.2-10.5,11.7-12.4
	c1.2,1.7,0.3,6.7,0.3,7.5c0,0.1,0,0.2,0.1,0.2c2.3-0.3,4.7-3.3,6-4.9c1.4-1.7,2.7-3.5,3.7-5.4c0.9-1.7,1.6-3.6,2.2-5.4
	c0.2-0.5,0.3-1.1,0.5-1.6c0.4-1.7,0.8-3.5,1.1-5.2c0.1-0.6,0.2-1.1,0.2-1.7c0-0.1,0.1-0.5,0.1-0.9c0,0,0,0.1,0.1,0.1
	c0.1,0.1,0.1,0.2,0.1,0.4c0.3,0.8,0.5,1.7,0.6,2.6c0,0.2,0.1,0.5,0.1,0.8c0.1,0.6,0.1,1.1,0.1,1.7c0,0.2,0,1.5,0,1.7c0,0,0,0,0,0
	c0,0.1,0.1,0.1,0.2,0c0,0,0,0,0,0c3.6-3.1,8.5-9.7,11-16.3c2.7-7.2,3.9-14.8,4.5-22.4c0.2-2.2,0.3-4.5,0.3-6.7
	c0.1-5,0-10.1-0.5-15.1c-0.6-6.9-1.9-13.7-3.6-20.3c-0.5-1.9-1.1-3.8-1.7-5.7c-0.7-2.3-1.5-4.5-2.4-6.7c-2.3-6-5.6-11.8-8.8-17.4
	c-0.9-1.6-1.9-3.2-3-4.8C169.1,90.4,167.7,88.6,166.3,86.8"/>
<path fill="#93775F" d="M148.9,212.9c0,0-0.1,0.1-0.1,0.2c0.1,0.3,0.1,0.4,0.1,0.4c0.4,1.9,0.9,3.9,1.1,5.9c0.1,1,0.2,2.3,0.2,3.3
	c0,0.2,0,0.2,0,0.3c0,0.6,1.8-1.7,2-2c1.5-1.7,6.4-10,8-13.3c0,0,1,1.5,1.5,3.5c0.8,2.9,1.4,5.2,1.4,5.2c0-0.1,3.5-3.7,6-13.7
	c0.3-1.2,0.7-2.4,1-3.6c0.4-1.7,0.8-3.4,1.1-5.2c0.1-0.7,0.4-2.2,0.4-2.4c0.4,0.2,1,0.7,1.1,0.8c1.7,1.4,2.9,3.3,3.8,5.3
	c0.2,0.4,0.3,0.7,0.5,1.1c1-1.6,2.9-5.4,4.1-8.3c2-4.7,3.1-9.8,3.9-14.9c0.8-5.3,1.3-10.6,1.3-15.9c0.1-8.8-1-17.7-2.9-26.3
	c-0.5-2.5-1.1-4.9-1.8-7.3c-1.8-6.7-4.7-13.1-7.7-19.4c-0.8-1.8-1.7-3.5-2.7-5.2c-1.3-2.1-3.2-4.7-5.2-7.1c2.8,7.1,5.8,23.5,6,25.2
	c1.5,15,0.5,32.1-3.3,48.7l-2.6,8.5c-1.1,3.8-4.4,11.4-5.7,15.2c-1.2,3.5-6.9,13.6-8.7,16.4C150.6,210.6,150.4,210.6,148.9,212.9"/>
<path fill="#93775F" d="M119.9,40.2c3.9-5.9,8.3-11.2,21.7-16.2c-5.2-2-24.3-5.7-39.8,2C102.2,26.1,112.3,29.5,119.9,40.2"/>
<path fill="#93775F" d="M85.7,85.5c5.5,2.2,11.2,1.2,11.4,1.5c2.4,3.6,13.3,20.6,15.4,24c18.1,28.9,15.5,60.5,15.5,60.5
	s-2.7,30.3-15,43.3c-0.6,0.6-6,19.3-5.8,18.5c1.9-10,2.6-18,2.8-21c0,0,13.8-22.4,11.1-49.8C116.7,115.6,85.7,85.5,85.7,85.5"/>
<path fill="#93775F" d="M72.4,96.4c-49.6,44.2-17.2,118.9-17.2,118.9S34.3,148.9,72.4,96.4"/>
<path fill="#93775F" d="M112,155.2c-7.5,47.5-23.4,62.2-23.4,62.2c-18.7-30.2-20.2-62-17.7-85.1c-0.6,33.6,16.6,66.6,16.6,66.6
	s18.6-35.2,10.8-65.9c0.2,28.4-9.2,52.1-9.2,52.1c-12.8-26.7-12.7-61.2-12.3-74.4c0.1-2,0.3-4,0.5-6c0.2-1.4,0.4-2.9,0.8-4.3
	c0.1-0.5,0.5-1.8,0.5-2c-40,69.1,8.2,135.1,8.2,135.1S116.2,200.3,112,155.2"/>
<path fill="#93775F" d="M101.3,33.1c0,0-21.6-11.8-36.1,6.3C80.3,17.4,101.3,33.1,101.3,33.1"/>
<path fill="#93775F" d="M88.4,25.3C65.6,14.9,69,1.4,64.9,3.1c-5.7,3-1.8,16.6-1.8,16.6s-1.5-0.2-1.6,1.1c-0.2,1.4,0.7,2.9,0.7,2.9
	C60,29.7,63,42.9,63,42.9s-1.7-19.4,1.3-18.9c-1.6-1.6-1.2-2.4-1-2.8c0.4-0.7,2.5-0.2,2.5-0.2S60.9,9,65.1,4.6
	C71.4,21.2,88.4,25.3,88.4,25.3"/>
<path fill="#93775F" d="M142.3,28.5c30.4-6.3,30.7-27,34.7-25.2c5.7,3.1,1.4,16.6,1.4,16.6s1.5-0.2,1.6,1.2c0.1,1.4-0.7,2.9-0.7,2.9
	c2.8,7.3-1,24-1,24s1.2-23.9-1.8-23.5c1.6-1.6,1.5-2.4,1.3-2.8c-0.4-0.7-2.9-0.3-2.9-0.3s5.8-10.4,1.7-14.9
	C166,29.1,142.3,28.5,142.3,28.5"/>
<polygon fill="#672D00" points="381.1,38.5 379.5,38.5 379.5,37.8 383.4,37.9 383.4,38.5 381.8,38.5 381.8,42.9 381.1,42.9 "/>
<polygon fill="#672D00" points="384.6,37.9 385.6,37.9 387.2,41.7 387.2,41.7 388.8,37.9 389.9,37.9 389.8,43 389.1,43 389.2,38.8 
	389.2,38.8 387.4,43 386.9,42.9 385.3,38.8 385.3,38.8 385.2,42.9 384.5,42.9 "/>
<path fill="#93775F" d="M110.7,85.2l11.4,15.5c0,0,8-17.1,7.7-17.8c-1.4-1.7-4.5-7-4.5-7s-10.4-5.3-15.6,2.8
	C104.7,86.5,110.7,85.2,110.7,85.2"/>
<path fill="#FFFFFF" d="M104.8,81.5l13,16.9c0,0,11.5-15,11.4-15.7c-1-2-2.7-8.6-2.7-8.6s-9.2-6.7-16.1,0.2
	C103.8,80.9,104.8,81.5,104.8,81.5"/>
<path fill="#672D00" d="M117.7,99.6L104.2,82c-0.1-0.1-0.2-0.3-0.2-0.5c0-0.4-0.2-1.7,5.8-7.6c2.2-2.2,4.9-3.3,8-3.3
	c4.8,0.1,8.8,2.9,9,3l0.2,0.1l0.1,0.2c0,0.1,1.6,6.5,2.6,8.4l0.1,0.1l0,0.1c0,0.3,0.1,1-11.5,16.2L117.7,99.6z M105.4,81.2l12.3,16
	c4-5.2,9.8-13,10.6-14.6c-0.9-2-2.2-7-2.5-8.2c-0.8-0.6-4.2-2.6-8-2.6c-2.7,0-5.1,0.9-7,2.9C106.3,79.3,105.6,80.8,105.4,81.2"/>
<path fill="#DAD6CC" d="M119.1,92.9c0,0,1-1.6,2.1-3c1.1-1.4,2.5-3,2.5-3s-1.7-1.9-2.3-3.5c-0.5-1.7-1.4-5.1-1.4-5.1L119.1,92.9z"/>
<path fill="#FF5000" d="M148.2,35.9c-7.9,0.5-26.6,7.1-27.8,30.1c-1.3,25.8,20.1,28.8,26.1,29c4,0.1,29.3-0.2,30.7-27.5
	C178.4,46.2,161,35.1,148.2,35.9"/>
<path fill="#672D00" d="M147.1,95.6L147.1,95.6c-0.2,0-0.4,0-0.5,0c-3-0.1-13.3-1-20.3-8.5c-4.7-5.1-6.9-12.2-6.4-21.1
	c1.2-23.7,20.8-30.2,28.3-30.6c0.5,0,1.1,0,1.6,0c7.2,0.1,14.7,3.5,20.1,9.2c4,4.2,8.6,11.7,7.9,23.1
	C176.4,94.6,151.9,95.7,147.1,95.6 M149.8,36.4c-0.5,0-1,0-1.6,0c-7.2,0.5-26.1,6.7-27.3,29.6c-0.4,8.6,1.6,15.4,6.1,20.3
	c6.7,7.2,16.6,8.1,19.5,8.2c0.1,0,0.3,0,0.5,0c4.7,0.1,28.3-1,29.7-27c0.6-11-3.8-18.2-7.6-22.3C164,39.8,156.7,36.5,149.8,36.4"/>
<path fill="#FFFFFF" d="M147.3,72.9c5.2,0.2,9.6-3.9,9.8-9.2c0.2-5.2-3.9-9.6-9.2-9.8c-5.2-0.2-9.6,3.9-9.8,9.2
	C138,68.4,142.1,72.7,147.3,72.9"/>
<path fill="#672D00" d="M147.5,73.4L147.5,73.4l-0.2,0c-5.5-0.2-9.8-4.8-9.6-10.3c0.2-5.4,4.7-9.7,10.1-9.6l0.2,0
	c5.5,0.2,9.8,4.8,9.6,10.3C157.4,69.1,152.9,73.5,147.5,73.4 M147.7,54.5c-4.8-0.1-8.9,3.8-9.1,8.7c-0.2,4.9,3.7,9.1,8.7,9.3l0.2,0
	c4.8,0.1,8.9-3.8,9.1-8.7c0.2-4.9-3.7-9.1-8.7-9.3L147.7,54.5z"/>
<path fill="#672D00" d="M147.8,60.2L147.8,60.2c-1.9,0-3.5,1.5-3.6,3.3c0,0.9,0.3,1.8,0.9,2.5c0.6,0.7,1.5,1.1,2.4,1.1l0.1,0
	c1.9,0,3.4-1.5,3.5-3.3C151.2,61.9,149.7,60.3,147.8,60.2"/>
<path fill="#FF5000" d="M89,32.4c-6-0.2-12.3,0.9-17.2,4.8c-6.4,5.1-9.6,14.5-10.1,25.6C61.1,77.2,69.5,91.8,87,93.2
	c0.3,0,0.7,0,1,0.1c9.1,0.4,27.7-6.1,28.6-28C117.2,52.9,110.9,33.1,89,32.4"/>
<path fill="#672D00" d="M88.6,93.8L88.6,93.8c-0.2,0-0.4,0-0.6,0c-0.4,0-0.7,0-1.1-0.1c-8.3-0.6-15.1-4.3-19.8-10.5
	c-4.2-5.6-6.3-12.8-6-20.4c0.5-12,4.1-21,10.3-26c4.2-3.3,9.8-5,16.7-4.9c0.3,0,0.6,0,0.9,0c8.1,0.3,14.7,3.1,19.7,8.4
	c6.7,7.3,8.8,17.7,8.5,25C116.3,86.3,99.2,93.9,88.6,93.8 M88.2,32.9c-6.7-0.1-12.1,1.5-16,4.7c-5.9,4.7-9.4,13.7-9.9,25.2
	C61.4,81.9,74.5,91.7,87,92.6c0.3,0,0.7,0,1,0.1c0.2,0,0.4,0,0.6,0c6.8,0.1,26.5-4.8,27.5-27.5c0.3-7.1-1.7-17.2-8.2-24.2
	c-4.7-5.1-11.1-7.8-18.9-8.1C88.7,32.9,88.4,32.9,88.2,32.9"/>
<path fill="#FFFFFF" d="M90.8,70.7c5.2,0.2,9.6-3.9,9.8-9.2c0.2-5.2-3.9-9.6-9.2-9.8c-5.2-0.2-9.6,3.9-9.8,9.2
	C81.5,66.1,85.6,70.5,90.8,70.7"/>
<path fill="#672D00" d="M91,71.1L91,71.1l-0.2,0c-2.7-0.1-5.1-1.2-6.9-3.1c-1.8-1.9-2.8-4.5-2.7-7.1c0.2-5.4,4.7-9.7,10.1-9.6l0.2,0
	c5.5,0.2,9.8,4.8,9.6,10.3C100.9,66.9,96.4,71.2,91,71.1 M91.2,52.2c-4.8-0.1-8.9,3.8-9.1,8.7c-0.1,2.4,0.8,4.7,2.4,6.4
	c1.6,1.7,3.9,2.8,6.3,2.8l0.2,0c4.9,0.1,8.9-3.8,9.1-8.7c0.2-4.9-3.7-9.1-8.7-9.3L91.2,52.2z"/>
<path fill="#672D00" d="M93.9,59.7c-0.6-0.7-1.5-1.1-2.4-1.1l-0.1,0c-1.9,0-3.4,1.5-3.5,3.3c0,0.9,0.3,1.8,0.9,2.5
	c0.6,0.7,1.5,1.1,2.4,1.1l0.1,0c1.9,0,3.4-1.5,3.5-3.3C94.8,61.2,94.5,60.3,93.9,59.7"/>
<path fill="#93775F" d="M105.8,214.1c-0.1,3.9-0.5,6.2-1.1,10.1c-0.6,3.7-1.3,7.4-2.5,11c-2.5,7.8-6.7,13.8-7.2,14.1l-1-3.2
	c-0.6,0.9-1.1,1.9-1.6,2.9c-1,1.8-2.1,3.6-3.2,5.3c-0.3,0.5-0.6,1-1,1.5c-0.6,0.9-1.2,1.7-1.8,2.6c-0.2,0.3-0.5,0.6-0.8,0.9
	c-0.9-1.3-3.6-7.3-3.9-8.1c-0.5-1.2-4.1-9.3-4.9-11.8c-0.1-0.3-1.2,5.1-1.4,6.5c0,0.3-0.4-0.5-0.5-0.8c-3.1-7.6-5.5-15.8-5.9-17.3
	c-0.2-0.7-0.4-1.4-0.6-2.2c-0.8,1.7-1.2,2.7-1.8,4.5c-0.2,0.5-0.3,1-0.5,1.5c-0.1,0.3-0.4,1.3-0.5,1.6c-0.5-0.6-0.8-1.3-1.1-2
	c-1.2-2.6-2.2-5.2-3.1-7.9c-0.3-0.8-0.5-1.6-0.7-2.4c-0.8-2.8-1.6-5.6-2.3-8.4c-0.7-2.7-1.3-5.7-2-8.5c-0.1-0.3-0.2-1.2-0.2-1.2
	c4.4,13.3,8.6,19.9,9,20.7l2.8-8.9c0,0,4.3,13.1,7.1,19.3c0.4-1.1,1.3-5,1.3-5s3.2,10.2,9.5,21.7c4.2-4.4,9-14.6,9-14.6l1,4
	c5.7-9,9.5-22.3,9.6-25.7L105.8,214.1z"/>
<path fill="#93775F" d="M139.9,34.8c0,0,23.1-8.5,34.8,11.6C163.1,22.5,139.9,34.8,139.9,34.8"/>
<path fill="#FF5000" stroke="#672D00" stroke-miterlimit="10" d="M227.5,38.7c0-2.3-0.5-7.5-6.2-7.4c-3.4,0-26.8,0.2-33.2-0.5
	c-0.8-0.1-2.9,0.5-3.5,3.9c-0.5,3.4,0.9,15.9,0.9,15.9s0.3,1.8,2.3,1.7l6.8,0.1c0,0,0.6,39.4,0.5,41c0,1.7-0.1,3.6,3.9,4.4
	c4.9,1,9.5,0.4,11.6,0c3-0.6,4.1-1.3,4.6-4.2c0.7-4.4,0.5-40.1,0.5-42c4.2-0.2,10.7,0.6,11.3-5.7C227.3,42.1,227.4,41,227.5,38.7z"
	/>
<path fill="#FF5000" stroke="#672D00" stroke-miterlimit="10" d="M302,33.1c13.7,1.6,19.5,13.1,19.3,21.4c-0.3,10.6-10,17.8-10,17.8
	c5.3,5.4,9,9.2,11.5,17.2c3,9.5-4,9.5-9.4,10.1c-5.3,0.7-9-1.3-10.7-4.5c-1.2-2.3-1.9-5.4-2.8-8.3c-0.9-2.9-3.8-6.9-3.8-6.9
	s-0.4,11.7-0.6,13.7c-0.2,2.1-0.9,4.1-2.5,4.9c-1.5,0.7-8.8,0.9-12.7-0.1c-3.9-1-4.3-3.1-4.3-5.4c0-2.3,0.1-48.8,0.1-54.2
	c0.1-5.4,5.9-5.8,5.9-5.8S288.3,31.5,302,33.1z M294.9,53l-0.1,9.8l3.1-0.1c0,0,3.3,0.2,3.3-4.7c0-3.3-1.4-3.9-1.9-4.4
	C298.8,53.1,294.9,53,294.9,53z"/>
<path fill="#FF5000" stroke="#672D00" stroke-miterlimit="10" d="M270.3,35.7c-0.4-1.3-1.4-3.9-4.8-4c-3.4,0-25.6-0.2-27.3-0.3
	c-1.8-0.1-4.6,0.3-5.4,6.3c-3.4,24.8-0.1,55.2-0.1,55.2s1.4,4.9,7.3,5.9c5.8,1,23.6,0,23.6,0s5.6,0.1,5.8-5.5
	c0.1-4.2,0.1-6.9,0.1-8.3c0-1.4-1.4-3.4-3.4-3.5c-2,0-14.2,0.5-14.2,0.5l0.3-8.6c0,0,7.1,0.2,9.1-0.2c2.4-0.5,3.9-0.9,4.4-3.4
	c0.5-2.4,0.6-9.8,0.6-9.8s-0.5-2.9-2.9-3c-2.4,0-10.7-0.6-10.7-0.6s-0.9-3.1,0-4.2c1-1.1,7.3-0.6,10.7-0.5c5.9,0.1,6.9-1.9,7.4-4.8
	C271.3,43.4,270.7,37,270.3,35.7z"/>
</svg>
